<svg width="162" height="26" viewBox="0 0 162 26" fill="none" xmlns="http://www.w3.org/2000/svg">
<g clip-path="url(#clip0_11_1057)">
<path d="M149.04 15.8775L152.082 17.7408L151.255 14.2633L153.963 11.9374L150.41 11.6514L149.04 8.3505V15.8775ZM149.04 18.4168L142.692 22.306L144.418 15.0477L138.769 10.1943L146.183 9.5985L149.04 2.7085L151.897 9.5985L159.312 10.1943L153.662 15.0477L155.388 22.306L149.04 18.4168Z" fill="#FF5300"/>
</g>
<g clip-path="url(#clip1_11_1057)">
<path d="M12.96 18.4168L6.61177 22.306L8.33761 15.0477L2.68921 10.1943L10.1034 9.5985L12.96 2.7085L15.8166 9.5985L23.2319 10.1943L17.5824 15.0477L19.3082 22.306L12.96 18.4168Z" fill="#FF5300"/>
</g>
<g clip-path="url(#clip2_11_1057)">
<path d="M46.98 18.4168L40.6318 22.306L42.3576 15.0477L36.7092 10.1943L44.1234 9.5985L46.98 2.7085L49.8366 9.5985L57.2519 10.1943L51.6024 15.0477L53.3283 22.306L46.98 18.4168Z" fill="#FF5300"/>
</g>
<g clip-path="url(#clip3_11_1057)">
<path d="M81 18.4168L74.6518 22.306L76.3776 15.0477L70.7292 10.1943L78.1434 9.5985L81 2.7085L83.8566 9.5985L91.2719 10.1943L85.6224 15.0477L87.3483 22.306L81 18.4168Z" fill="#FF5300"/>
</g>
<g clip-path="url(#clip4_11_1057)">
<path d="M115.02 18.4168L108.672 22.306L110.398 15.0477L104.749 10.1943L112.163 9.5985L115.02 2.7085L117.877 9.5985L125.292 10.1943L119.642 15.0477L121.368 22.306L115.02 18.4168Z" fill="#FF5300"/>
</g>
<defs>
<clipPath id="clip0_11_1057">
<rect width="25.92" height="26" fill="white" transform="translate(136.08)"/>
</clipPath>
<clipPath id="clip1_11_1057">
<rect width="25.92" height="26" fill="white"/>
</clipPath>
<clipPath id="clip2_11_1057">
<rect width="25.92" height="26" fill="white" transform="translate(34.02)"/>
</clipPath>
<clipPath id="clip3_11_1057">
<rect width="25.92" height="26" fill="white" transform="translate(68.04)"/>
</clipPath>
<clipPath id="clip4_11_1057">
<rect width="25.92" height="26" fill="white" transform="translate(102.06)"/>
</clipPath>
</defs>
</svg>
